<?xml version="1.0" encoding="iso-8859-1"?>
<!-- Generator: Adobe Illustrator 19.0.0, SVG Export Plug-In . SVG Version: 6.00 Build 0)  -->
<svg version="1.1" id="Layer_1" width="600" height="600" xmlns="http://www.w3.org/2000/svg" xmlns:xlink="http://www.w3.org/1999/xlink" x="0px" y="0px"
	 viewBox="0 0 600 600">
  <style>
    .xo { font: normal 123px Andale Mono, monospace; fill: hsl(17, 100%, 45%) }
    .bg { fill: hsl(17, 100%, 80%); stroke: hsl(17, 80%, 20%); stroke-width: 20px; }
    .hash { stroke: hsl(17, 80%, 20%) }

    @keyframes pulse {
      from {stroke: hsl(17, 100%, 70%);}
      to {stroke: hsl(17, 100%, 90%);}
    }

    .line {
      stroke-width: 10;
      animation-iteration-count: infinite; 
      animation-direction: alternate;
      animation-name: pulse;
      animation-duration: 1s;
      animation-timing-function: ease-in;
    }
    <!--.line { stroke:  }-->
    
  </style>
    <defs>
      <filter id="f1" x="0" y="0" width="200%" height="200%">
        <feOffset result="offOut" in="SourceAlpha" dx="15" dy="15" />
        <feBlend in="SourceGraphic" in2="offOut" mode="normal" />
      </filter>
    </defs>
  <rect width="100%" height="100%" id="background" class="bg"/>
    <g visibility="hidden">
      <rect class="xo" x="400" y="400" width="200" height="200"></rect>
      <rect class="xo" x="0" y="400" width="200" height="200" />
      <rect class="xo" x="0" y="0" width="200" height="200" />
      <circle class="line" cx='98' cy='98' stroke="white" fill="transparent" stroke-width='4' r="95" />
      <path class="line" d="M 0 400 L 200 600 M 200 400 L 0 600" stroke="white" stroke-width="4" />
      <path class="line" d="M 400 400 L 600 600 M 600 400 L 400 600" stroke="white" stroke-width="4"/>
    </g>

    <g visibility="visible">
      <rect class="xo" x="200" y="200" width="200" height="200"></rect>
      <rect class="xo" x="200" y="400" width="200" height="200" />
      <rect class="xo" x="400" y="200" width="200" height="200" />
      <circle class="line" cx='300' cy='300' stroke="white" fill="transparent" stroke-width='4' r="95" />
      <circle class="line" cx='300' cy='500' stroke="white" fill="transparent" stroke-width='4' r="95" />
      <path class="line" d="M 400 200 L 600 400 M 600 200 L 400 400" stroke="white" stroke-width="4" />
    </g>
    
    <g visibility="hidden">
      <circle cx='98' cy='98' stroke="white" fill="transparent" stroke-width='4' r="95" />
      <circle cx='300' cy='98' stroke="white" fill="transparent" stroke-width='4' r="95" />
      <circle cx='500' cy='98' stroke="white" fill="transparent" stroke-width='4' r="95" />
      <circle cx='98' cy='300' stroke="white" fill="transparent" stroke-width='4' r="95" />
      <circle cx='300' cy='300' stroke="white" fill="transparent" stroke-width='4' r="95" />
      <circle cx='500' cy='300' stroke="white" fill="transparent" stroke-width='4' r="95" />
      <circle cx='98' cy='500' stroke="white" fill="transparent" stroke-width='4' r="95" />
      <circle cx='300' cy='500' stroke="white" fill="transparent" stroke-width='4' r="95" />
      <circle cx='500' cy='500' stroke="white" fill="transparent" stroke-width='4' r="95" />

      <path d="M 0 0 L 200 200 M 200 0 L 0 200" stroke="white" stroke-width="4"/>
      <path d="M 200 0 L 400 200 M 400 0 L 200 200" stroke="white" stroke-width="4"/>
      <path d="M 400 0 L 600 200 M 600 0 L 400 200" stroke="white" stroke-width="4"/>
      <path d="M 0 200 L 200 400 M 200 200 L 0 400" stroke="white" stroke-width="4"/>
      <path d="M 200 200 L 400 400 M 400 200 L 200 400" stroke="white" stroke-width="4"/>
      <path d="M 400 200 L 600 400 M 600 200 L 400 400" stroke="white" stroke-width="4"/>
      <path d="M 0 400 L 200 600 M 200 400 L 0 600" stroke="white" stroke-width="4"/>
      <path d="M 200 400 L 400 600 M 400 400 L 200 600" stroke="white" stroke-width="4"/>
      <path d="M 400 400 L 600 600 M 600 400 L 400 600" stroke="white" stroke-width="4"/>  
    </g>
    
    
    
    <path 
		d="M 0 200 H 600 M 00 400 H 600 M 200 0 V 600 M 400 00 V 600" 
		stroke-width="5"
		stroke-linejoin="round"
		class="hash"
		>
    </path>
</svg>
